<svg width="16" height="16" viewBox="0 0 16 16" fill="none" xmlns="http://www.w3.org/2000/svg">
<path d="M2.66663 3.99999C2.66663 3.26361 3.26358 2.66666 3.99996 2.66666H5.33329C6.06967 2.66666 6.66663 3.26361 6.66663 3.99999V5.33332C6.66663 6.0697 6.06967 6.66666 5.33329 6.66666H3.99996C3.26358 6.66666 2.66663 6.0697 2.66663 5.33332V3.99999Z" stroke="#0583EC" stroke-width="1.5" stroke-linecap="round" stroke-linejoin="round"/>
<path d="M9.33329 3.99999C9.33329 3.26361 9.93025 2.66666 10.6666 2.66666H12C12.7363 2.66666 13.3333 3.26361 13.3333 3.99999V5.33332C13.3333 6.0697 12.7363 6.66666 12 6.66666H10.6666C9.93025 6.66666 9.33329 6.0697 9.33329 5.33332V3.99999Z" stroke="#0583EC" stroke-width="1.5" stroke-linecap="round" stroke-linejoin="round"/>
<path d="M2.66663 10.6667C2.66663 9.93028 3.26358 9.33332 3.99996 9.33332H5.33329C6.06967 9.33332 6.66663 9.93028 6.66663 10.6667V12C6.66663 12.7364 6.06967 13.3333 5.33329 13.3333H3.99996C3.26358 13.3333 2.66663 12.7364 2.66663 12V10.6667Z" stroke="#0583EC" stroke-width="1.5" stroke-linecap="round" stroke-linejoin="round"/>
<path d="M9.33329 10.6667C9.33329 9.93028 9.93025 9.33332 10.6666 9.33332H12C12.7363 9.33332 13.3333 9.93028 13.3333 10.6667V12C13.3333 12.7364 12.7363 13.3333 12 13.3333H10.6666C9.93025 13.3333 9.33329 12.7364 9.33329 12V10.6667Z" stroke="#0583EC" stroke-width="1.5" stroke-linecap="round" stroke-linejoin="round"/>
</svg>
